<svg xmlns="http://www.w3.org/2000/svg" xmlns:xlink="http://www.w3.org/1999/xlink" width="564" height="534" preserveAspectRatio="xMidYMid meet" version="1.0" viewBox="0 0 422.88 400.5" zoomAndPan="magnify"><defs><clipPath id="id1"><path d="M 142.019531 74.960938 L 280.597656 74.960938 L 280.597656 213.539062 L 142.019531 213.539062 Z M 142.019531 74.960938" clip-rule="nonzero"/></clipPath></defs><path fill="#fff" fill-opacity="1" fill-rule="nonzero" d="M 214.019531 150.765625 C 213.980469 150.707031 213.9375 150.652344 213.898438 150.59375 L 208.71875 150.59375 C 208.675781 150.652344 208.636719 150.707031 208.597656 150.765625 C 204.191406 157.472656 205.941406 168.296875 205.941406 168.296875 C 205.8125 162.957031 207.191406 160.09375 207.191406 160.09375 C 205.863281 170.304688 208.761719 175.839844 208.761719 175.839844 C 209.050781 173.492188 209.335938 171.636719 209.617188 170.15625 C 209.121094 175.804688 211.308594 181.53125 211.308594 181.53125 C 211.308594 181.53125 213.496094 175.804688 213 170.15625 C 213.277344 171.636719 213.5625 173.492188 213.855469 175.839844 C 213.855469 175.839844 216.753906 170.304688 215.421875 160.09375 C 215.421875 160.09375 216.804688 162.957031 216.675781 168.296875 C 216.675781 168.296875 218.425781 157.472656 214.019531 150.765625"/><path fill="#fff" fill-opacity="1" fill-rule="nonzero" d="M 211.308594 130.566406 C 208.386719 130.566406 206.019531 128.199219 206.019531 125.28125 C 206.019531 122.359375 208.386719 119.992188 211.308594 119.992188 C 214.230469 119.992188 216.597656 122.359375 216.597656 125.28125 C 216.597656 128.199219 214.230469 130.566406 211.308594 130.566406 Z M 220.675781 118.316406 L 219.980469 118.183594 C 217.253906 117.652344 214.335938 117.382812 211.308594 117.382812 C 209.320312 117.382812 207.382812 117.5 205.515625 117.726562 L 205.347656 118.308594 C 204.066406 122.730469 203.574219 127.289062 203.886719 131.859375 L 203.910156 132.195312 C 206.257812 132.574219 208.765625 132.769531 211.308594 132.769531 C 214.960938 132.769531 218.546875 132.367188 221.675781 131.601562 L 222.101562 131.496094 C 222.382812 126.597656 221.75 122.175781 220.675781 118.316406"/><path fill="#fff" fill-opacity="1" fill-rule="nonzero" d="M 211.308594 128.441406 C 209.5625 128.441406 208.144531 127.027344 208.144531 125.28125 C 208.144531 123.53125 209.5625 122.117188 211.308594 122.117188 C 213.054688 122.117188 214.472656 123.53125 214.472656 125.28125 C 214.472656 127.027344 213.054688 128.441406 211.308594 128.441406 Z M 211.308594 120.5625 C 208.703125 120.5625 206.589844 122.675781 206.589844 125.28125 C 206.589844 127.882812 208.703125 129.996094 211.308594 129.996094 C 213.914062 129.996094 216.023438 127.882812 216.023438 125.28125 C 216.023438 122.675781 213.914062 120.5625 211.308594 120.5625"/><path fill="#fff" fill-opacity="1" fill-rule="nonzero" d="M 209.769531 124.777344 C 209.703125 124.753906 209.632812 124.792969 209.617188 124.863281 C 209.59375 124.953125 209.578125 125.050781 209.570312 125.152344 C 209.5625 125.21875 209.617188 125.28125 209.6875 125.28125 C 209.746094 125.28125 209.796875 125.234375 209.800781 125.175781 C 209.808594 125.085938 209.824219 124.996094 209.84375 124.914062 C 209.859375 124.855469 209.824219 124.796875 209.769531 124.777344"/><path fill="#fff" fill-opacity="1" fill-rule="nonzero" d="M 211.183594 123.539062 C 210.589844 123.582031 210.078125 123.921875 209.796875 124.410156 C 209.761719 124.472656 209.792969 124.554688 209.859375 124.578125 L 209.863281 124.578125 C 209.917969 124.597656 209.972656 124.574219 210.003906 124.523438 C 210.246094 124.105469 210.6875 123.8125 211.199219 123.773438 C 211.257812 123.769531 211.308594 123.722656 211.308594 123.660156 L 211.308594 123.65625 C 211.308594 123.585938 211.25 123.535156 211.183594 123.539062"/><path fill="#fff" fill-opacity="1" fill-rule="nonzero" d="M 211.308594 127.28125 C 210.203125 127.28125 209.304688 126.382812 209.304688 125.28125 C 209.304688 124.175781 210.203125 123.277344 211.308594 123.277344 C 212.414062 123.277344 213.308594 124.175781 213.308594 125.28125 C 213.308594 126.382812 212.414062 127.28125 211.308594 127.28125 Z M 211.308594 122.484375 C 209.765625 122.484375 208.511719 123.734375 208.511719 125.28125 C 208.511719 126.824219 209.765625 128.074219 211.308594 128.074219 C 212.851562 128.074219 214.101562 126.824219 214.101562 125.28125 C 214.101562 123.734375 212.851562 122.484375 211.308594 122.484375"/><path fill="#fff" fill-opacity="1" fill-rule="nonzero" d="M 205.140625 145.828125 L 207.121094 148.929688 L 207.40625 148.929688 L 207.769531 149.667969 L 214.847656 149.667969 L 215.207031 148.929688 L 215.496094 148.929688 L 217.476562 145.828125 L 205.140625 145.828125"/><path fill="#fff" fill-opacity="1" fill-rule="nonzero" d="M 202.367188 145.828125 L 201.5625 143.757812 L 194.996094 148.488281 L 194.917969 147.804688 L 200.761719 141.011719 C 200.574219 140.335938 200.398438 139.660156 200.242188 138.988281 L 193.128906 147.253906 L 193.625 151.589844 L 203.386719 145.828125 L 202.367188 145.828125"/><path fill="#fff" fill-opacity="1" fill-rule="nonzero" d="M 222.375 138.988281 C 222.21875 139.660156 222.042969 140.335938 221.855469 141.011719 L 227.695312 147.804688 L 227.617188 148.488281 L 221.050781 143.757812 L 220.246094 145.828125 L 219.226562 145.828125 L 228.992188 151.589844 L 229.484375 147.253906 L 222.375 138.988281"/><path fill="#fff" fill-opacity="1" fill-rule="nonzero" d="M 211.308594 134.117188 C 208.757812 134.117188 206.3125 133.925781 204.042969 133.582031 C 204.429688 137.039062 205.277344 140.546875 206.566406 144.011719 L 206.742188 144.480469 L 219.3125 144.480469 C 220.832031 140.402344 221.664062 136.53125 221.996094 132.90625 C 218.851562 133.675781 215.203125 134.117188 211.308594 134.117188"/><path fill="#fff" fill-opacity="1" fill-rule="nonzero" d="M 200.617188 132.90625 C 200.949219 136.53125 201.785156 140.402344 203.304688 144.480469 L 205.304688 144.480469 C 203.847656 140.566406 203.019531 136.84375 202.664062 133.347656 C 201.960938 133.214844 201.277344 133.070312 200.617188 132.90625"/><path fill="#fff" fill-opacity="1" fill-rule="nonzero" d="M 204.054688 117.933594 C 203.574219 118.007812 203.101562 118.089844 202.636719 118.183594 L 201.941406 118.316406 C 200.867188 122.175781 200.234375 126.597656 200.511719 131.496094 L 200.9375 131.601562 C 201.460938 131.726562 201.996094 131.84375 202.542969 131.953125 C 202.1875 126.710938 202.875 122 204.054688 117.933594"/><path fill="#fff" fill-opacity="1" fill-rule="nonzero" d="M 213.175781 103.476562 C 211.332031 105.675781 208.136719 110.078125 205.980469 116.320312 C 207.683594 116.132812 209.46875 116.035156 211.308594 116.035156 C 214.496094 116.035156 217.519531 116.332031 220.238281 116.863281 C 218.242188 110.601562 215.148438 105.992188 213.175781 103.476562"/><path fill="#fff" fill-opacity="1" fill-rule="nonzero" d="M 212.308594 102.417969 C 211.691406 101.691406 211.308594 101.3125 211.308594 101.3125 C 211.308594 101.3125 205.5 107.074219 202.378906 116.863281 C 203.066406 116.726562 203.769531 116.609375 204.496094 116.503906 C 206.824219 109.417969 210.539062 104.492188 212.308594 102.417969"/><path fill="#fff" fill-opacity="1" fill-rule="nonzero" d="M 232.449219 102.414062 C 230.007812 102.703125 229.773438 102.9375 229.484375 105.378906 C 229.195312 102.9375 228.960938 102.703125 226.523438 102.414062 C 228.960938 102.125 229.195312 101.890625 229.484375 99.449219 C 229.773438 101.890625 230.007812 102.125 232.449219 102.414062"/><path fill="#fff" fill-opacity="1" fill-rule="nonzero" d="M 252.992188 130.566406 C 251.058594 130.796875 250.875 130.980469 250.644531 132.914062 C 250.417969 130.980469 250.230469 130.796875 248.296875 130.566406 C 250.230469 130.339844 250.417969 130.152344 250.644531 128.222656 C 250.875 130.152344 251.058594 130.339844 252.992188 130.566406"/><path fill="#fff" fill-opacity="1" fill-rule="nonzero" d="M 178.996094 109.085938 C 175.40625 109.511719 175.0625 109.855469 174.636719 113.445312 C 174.210938 109.855469 173.867188 109.511719 170.277344 109.085938 C 173.867188 108.664062 174.210938 108.316406 174.636719 104.726562 C 175.0625 108.316406 175.40625 108.664062 178.996094 109.085938"/><path fill="#fff" fill-opacity="1" fill-rule="nonzero" d="M 191.6875 127.589844 C 189.566406 127.84375 189.363281 128.046875 189.113281 130.167969 C 188.863281 128.046875 188.65625 127.84375 186.535156 127.589844 C 188.65625 127.339844 188.863281 127.136719 189.113281 125.015625 C 189.363281 127.136719 189.566406 127.339844 191.6875 127.589844"/><path fill="#fff" fill-opacity="1" fill-rule="nonzero" d="M 172.128906 154.03125 C 168.535156 154.453125 168.191406 154.800781 167.765625 158.390625 C 167.34375 154.800781 166.996094 154.453125 163.40625 154.03125 C 166.996094 153.605469 167.34375 153.261719 167.765625 149.667969 C 168.191406 153.261719 168.535156 153.605469 172.128906 154.03125"/><path fill="#fff" fill-opacity="1" fill-rule="nonzero" d="M 191.960938 165.1875 C 190.789062 165.328125 190.675781 165.441406 190.535156 166.613281 C 190.398438 165.441406 190.285156 165.328125 189.113281 165.1875 C 190.285156 165.050781 190.398438 164.9375 190.535156 163.765625 C 190.675781 164.9375 190.789062 165.050781 191.960938 165.1875"/><path fill="#fff" fill-opacity="1" fill-rule="nonzero" d="M 246.285156 160.828125 C 242.695312 161.253906 242.351562 161.597656 241.925781 165.1875 C 241.5 161.597656 241.15625 161.253906 237.566406 160.828125 C 241.15625 160.402344 241.5 160.058594 241.925781 156.46875 C 242.351562 160.058594 242.695312 160.402344 246.285156 160.828125"/><path fill="#fff" fill-opacity="1" fill-rule="nonzero" d="M 211.308594 202.402344 C 179.242188 202.402344 153.15625 176.316406 153.15625 144.25 C 153.15625 112.183594 179.242188 86.097656 211.308594 86.097656 C 243.371094 86.097656 269.460938 112.183594 269.460938 144.25 C 269.460938 176.316406 243.371094 202.402344 211.308594 202.402344 Z M 253.835938 101.71875 C 242.476562 90.359375 227.375 84.101562 211.308594 84.101562 C 195.242188 84.101562 180.136719 90.359375 168.777344 101.71875 C 157.417969 113.078125 151.160156 128.183594 151.160156 144.25 C 151.160156 160.316406 157.417969 175.417969 168.777344 186.777344 C 180.136719 198.140625 195.242188 204.394531 211.308594 204.394531 C 227.375 204.394531 242.476562 198.140625 253.835938 186.777344 C 265.199219 175.417969 271.453125 160.316406 271.453125 144.25 C 271.453125 128.183594 265.199219 113.078125 253.835938 101.71875"/><g clip-path="url(#id1)"><path fill="#fff" fill-opacity="1" fill-rule="nonzero" d="M 211.308594 80.3125 C 246.621094 80.3125 275.246094 108.9375 275.246094 144.25 C 275.246094 150.769531 274.265625 157.058594 272.453125 162.988281 C 271.042969 161.160156 268.839844 159.980469 266.355469 159.980469 C 262.871094 159.980469 259.929688 162.292969 258.976562 165.464844 C 253.097656 165.867188 248.449219 170.765625 248.449219 176.746094 C 248.449219 177.273438 248.492188 177.792969 248.558594 178.300781 C 248.070312 178.214844 247.566406 178.167969 247.050781 178.167969 C 243.609375 178.167969 240.621094 180.128906 239.144531 182.996094 C 237.398438 181.894531 235.332031 181.253906 233.113281 181.253906 C 232.675781 181.253906 232.246094 181.28125 231.820312 181.328125 C 231.144531 178.695312 228.753906 176.746094 225.90625 176.746094 C 225.867188 176.746094 225.832031 176.75 225.792969 176.75 C 225.113281 172.515625 221.441406 169.277344 217.015625 169.277344 C 212.402344 169.277344 208.609375 172.796875 208.171875 177.296875 C 206.890625 176.355469 205.3125 175.796875 203.605469 175.796875 C 201.175781 175.796875 199.007812 176.925781 197.597656 178.683594 C 192.613281 175.316406 185.816406 176.433594 182.191406 181.308594 C 181.878906 181.730469 181.601562 182.167969 181.351562 182.617188 C 181.011719 182.257812 180.632812 181.921875 180.222656 181.613281 C 178.5625 180.378906 176.613281 179.8125 174.695312 179.863281 C 173.855469 177.496094 171.597656 175.796875 168.941406 175.796875 C 168.902344 175.796875 168.867188 175.800781 168.828125 175.800781 C 168.148438 171.566406 164.476562 168.328125 160.050781 168.328125 C 157.394531 168.328125 155.011719 169.496094 153.382812 171.34375 C 149.53125 163.117188 147.371094 153.9375 147.371094 144.25 C 147.371094 108.9375 175.996094 80.3125 211.308594 80.3125 Z M 211.308594 74.960938 C 173.042969 74.960938 142.023438 105.984375 142.023438 144.25 C 142.023438 182.515625 173.042969 213.535156 211.308594 213.535156 C 249.574219 213.535156 280.59375 182.515625 280.59375 144.25 C 280.59375 105.984375 249.574219 74.960938 211.308594 74.960938"/></g><g fill="#fff" fill-opacity="1"><g><g><path d="M 22.5 -43.390625 C 27.957031 -43.390625 32.441406 -42.28125 35.953125 -40.0625 C 39.460938 -37.851562 41.257812 -34.582031 41.34375 -30.25 L 41.34375 -29.5 L 28.515625 -29.5 L 28.515625 -29.75 C 28.515625 -30.988281 28.054688 -32.019531 27.140625 -32.84375 C 26.234375 -33.675781 24.851562 -34.09375 23 -34.09375 C 21.175781 -34.09375 19.78125 -33.820312 18.8125 -33.28125 C 17.84375 -32.75 17.359375 -32.085938 17.359375 -31.296875 C 17.359375 -30.179688 18.019531 -29.351562 19.34375 -28.8125 C 20.664062 -28.28125 22.789062 -27.726562 25.71875 -27.15625 C 29.15625 -26.445312 31.976562 -25.707031 34.1875 -24.9375 C 36.394531 -24.175781 38.320312 -22.925781 39.96875 -21.1875 C 41.625 -19.457031 42.472656 -17.101562 42.515625 -14.125 C 42.515625 -9.09375 40.8125 -5.351562 37.40625 -2.90625 C 34 -0.46875 29.441406 0.75 23.734375 0.75 C 17.085938 0.75 11.914062 -0.363281 8.21875 -2.59375 C 4.519531 -4.832031 2.671875 -8.78125 2.671875 -14.4375 L 15.625 -14.4375 C 15.625 -12.289062 16.179688 -10.851562 17.296875 -10.125 C 18.410156 -9.40625 20.144531 -9.046875 22.5 -9.046875 C 24.238281 -9.046875 25.675781 -9.234375 26.8125 -9.609375 C 27.945312 -9.984375 28.515625 -10.75 28.515625 -11.90625 C 28.515625 -12.9375 27.882812 -13.707031 26.625 -14.21875 C 25.363281 -14.738281 23.304688 -15.289062 20.453125 -15.875 C 16.984375 -16.613281 14.113281 -17.382812 11.84375 -18.1875 C 9.570312 -19 7.585938 -20.332031 5.890625 -22.1875 C 4.191406 -24.050781 3.34375 -26.570312 3.34375 -29.75 C 3.34375 -34.414062 5.148438 -37.851562 8.765625 -40.0625 C 12.378906 -42.28125 16.957031 -43.390625 22.5 -43.390625 Z M 22.5 -43.390625" transform="translate(96.087614, 271.273709)"/></g></g></g><g fill="#fff" fill-opacity="1"><g><g><path d="M 28.515625 -42.640625 C 31.160156 -42.640625 33.515625 -42.03125 35.578125 -40.8125 C 37.640625 -39.59375 39.25 -37.921875 40.40625 -35.796875 C 41.570312 -33.671875 42.15625 -31.285156 42.15625 -28.640625 L 42.15625 -27.828125 C 42.15625 -25.179688 41.570312 -22.785156 40.40625 -20.640625 C 39.25 -18.492188 37.640625 -16.8125 35.578125 -15.59375 C 33.515625 -14.375 31.160156 -13.765625 28.515625 -13.765625 L 18.28125 -13.765625 L 18.28125 0 L 4.59375 0 L 4.59375 -42.640625 Z M 18.28125 -23.734375 L 23.921875 -23.734375 C 25.367188 -23.734375 26.453125 -24.101562 27.171875 -24.84375 C 27.898438 -25.59375 28.265625 -26.609375 28.265625 -27.890625 L 28.265625 -28.390625 C 28.265625 -29.710938 27.898438 -30.734375 27.171875 -31.453125 C 26.453125 -32.179688 25.367188 -32.546875 23.921875 -32.546875 L 18.28125 -32.546875 Z M 18.28125 -23.734375" transform="translate(140.840909, 271.273709)"/></g></g></g><g fill="#fff" fill-opacity="1"><g><g><path d="M 33.15625 0 L 31.359375 -6.015625 L 16.421875 -6.015625 L 14.625 0 L 0.625 0 L 16.171875 -42.640625 L 32.109375 -42.640625 L 47.671875 0 Z M 19.28125 -15.5625 L 28.515625 -15.5625 L 24.046875 -30.75 L 23.796875 -30.75 Z M 19.28125 -15.5625" transform="translate(185.594204, 271.273709)"/></g></g></g><g fill="#fff" fill-opacity="1"><g><g><path d="M 24.921875 -43.390625 C 31.242188 -43.390625 36.242188 -41.804688 39.921875 -38.640625 C 43.597656 -35.484375 45.4375 -30.972656 45.4375 -25.109375 L 32.359375 -25.109375 C 32.359375 -27.585938 31.707031 -29.546875 30.40625 -30.984375 C 29.101562 -32.429688 27.253906 -33.15625 24.859375 -33.15625 C 22.085938 -33.15625 20.050781 -32.285156 18.75 -30.546875 C 17.445312 -28.816406 16.796875 -26.40625 16.796875 -23.3125 L 16.796875 -19.34375 C 16.796875 -16.28125 17.445312 -13.867188 18.75 -12.109375 C 20.050781 -10.359375 22.046875 -9.484375 24.734375 -9.484375 C 27.378906 -9.484375 29.382812 -10.164062 30.75 -11.53125 C 32.113281 -12.894531 32.796875 -14.816406 32.796875 -17.296875 L 45.4375 -17.296875 C 45.4375 -11.460938 43.648438 -6.992188 40.078125 -3.890625 C 36.503906 -0.796875 31.453125 0.75 24.921875 0.75 C 17.648438 0.75 12.144531 -1.109375 8.40625 -4.828125 C 4.664062 -8.546875 2.796875 -14.046875 2.796875 -21.328125 C 2.796875 -28.597656 4.664062 -34.09375 8.40625 -37.8125 C 12.144531 -41.53125 17.648438 -43.390625 24.921875 -43.390625 Z M 24.921875 -43.390625" transform="translate(233.818667, 271.273709)"/></g></g></g><g fill="#fff" fill-opacity="1"><g><g><path d="M 4.59375 -42.640625 L 41.46875 -42.640625 L 41.46875 -32.421875 L 18.28125 -32.421875 L 18.28125 -26.53125 L 38.125 -26.53125 L 38.125 -16.734375 L 18.28125 -16.734375 L 18.28125 -10.234375 L 41.90625 -10.234375 L 41.90625 0 L 4.59375 0 Z M 4.59375 -42.640625" transform="translate(282.043129, 271.273709)"/></g></g></g><g fill="#fff" fill-opacity="1"><g><g><path d="M 16.609375 -6.703125 C 16.609375 -4.285156 15.921875 -2.503906 14.546875 -1.359375 C 13.179688 -0.222656 11.207031 0.34375 8.625 0.34375 C 6.050781 0.34375 4.078125 -0.222656 2.703125 -1.359375 C 1.328125 -2.503906 0.640625 -4.285156 0.640625 -6.703125 L 0.640625 -6.953125 L 6.4375 -6.953125 L 6.4375 -6.71875 C 6.4375 -5.84375 6.597656 -5.21875 6.921875 -4.84375 C 7.253906 -4.46875 7.757812 -4.28125 8.4375 -4.28125 C 9.101562 -4.28125 9.597656 -4.46875 9.921875 -4.84375 C 10.253906 -5.21875 10.421875 -5.84375 10.421875 -6.71875 L 10.421875 -19.28125 L 16.609375 -19.28125 Z M 16.609375 -6.703125" transform="translate(135.175168, 317.072539)"/></g></g></g><g fill="#fff" fill-opacity="1"><g><g><path d="M 11.65625 -19.609375 C 14.976562 -19.609375 17.546875 -18.757812 19.359375 -17.0625 C 21.171875 -15.363281 22.078125 -12.890625 22.078125 -9.640625 C 22.078125 -6.390625 21.171875 -3.910156 19.359375 -2.203125 C 17.546875 -0.503906 14.976562 0.34375 11.65625 0.34375 C 8.332031 0.34375 5.769531 -0.5 3.96875 -2.1875 C 2.164062 -3.882812 1.265625 -6.367188 1.265625 -9.640625 C 1.265625 -12.910156 2.164062 -15.390625 3.96875 -17.078125 C 5.769531 -18.765625 8.332031 -19.609375 11.65625 -19.609375 Z M 11.65625 -14.984375 C 10.332031 -14.984375 9.320312 -14.582031 8.625 -13.78125 C 7.9375 -12.976562 7.59375 -11.894531 7.59375 -10.53125 L 7.59375 -8.734375 C 7.59375 -7.378906 7.9375 -6.296875 8.625 -5.484375 C 9.320312 -4.679688 10.332031 -4.28125 11.65625 -4.28125 C 12.976562 -4.28125 13.988281 -4.679688 14.6875 -5.484375 C 15.394531 -6.296875 15.75 -7.378906 15.75 -8.734375 L 15.75 -10.53125 C 15.75 -11.894531 15.394531 -12.976562 14.6875 -13.78125 C 13.988281 -14.582031 12.976562 -14.984375 11.65625 -14.984375 Z M 11.65625 -14.984375" transform="translate(153.864286, 317.072539)"/></g></g></g><g fill="#fff" fill-opacity="1"><g><g><path d="M 21.265625 -7.765625 C 21.265625 -5.128906 20.429688 -3.117188 18.765625 -1.734375 C 17.109375 -0.347656 14.75 0.34375 11.6875 0.34375 C 8.625 0.34375 6.253906 -0.347656 4.578125 -1.734375 C 2.910156 -3.117188 2.078125 -5.128906 2.078125 -7.765625 L 2.078125 -19.28125 L 8.265625 -19.28125 L 8.265625 -7.84375 C 8.265625 -6.757812 8.550781 -5.894531 9.125 -5.25 C 9.707031 -4.601562 10.550781 -4.28125 11.65625 -4.28125 C 12.757812 -4.28125 13.601562 -4.609375 14.1875 -5.265625 C 14.78125 -5.921875 15.078125 -6.78125 15.078125 -7.84375 L 15.078125 -19.28125 L 21.265625 -19.28125 Z M 21.265625 -7.765625" transform="translate(177.204667, 317.072539)"/></g></g></g><g fill="#fff" fill-opacity="1"><g><g><path d="M 20.375 -13.359375 C 20.375 -12.179688 20.054688 -11.113281 19.421875 -10.15625 C 18.785156 -9.207031 17.859375 -8.507812 16.640625 -8.0625 L 20.921875 0 L 13.984375 0 L 10.5625 -7.03125 L 8.265625 -7.03125 L 8.265625 0 L 2.078125 0 L 2.078125 -19.28125 L 13.875 -19.28125 C 15.25 -19.28125 16.425781 -19.007812 17.40625 -18.46875 C 18.382812 -17.9375 19.125 -17.21875 19.625 -16.3125 C 20.125 -15.40625 20.375 -14.421875 20.375 -13.359375 Z M 14.0625 -13.109375 C 14.0625 -13.617188 13.894531 -14.039062 13.5625 -14.375 C 13.226562 -14.707031 12.816406 -14.875 12.328125 -14.875 L 8.265625 -14.875 L 8.265625 -11.3125 L 12.328125 -11.3125 C 12.816406 -11.3125 13.226562 -11.484375 13.5625 -11.828125 C 13.894531 -12.179688 14.0625 -12.609375 14.0625 -13.109375 Z M 14.0625 -13.109375" transform="translate(200.545049, 317.072539)"/></g></g></g><g fill="#fff" fill-opacity="1"><g><g><path d="M 15.859375 0 L 7.765625 -9.359375 L 7.765625 0 L 2.078125 0 L 2.078125 -19.28125 L 7.484375 -19.28125 L 15.578125 -9.78125 L 15.578125 -19.28125 L 21.265625 -19.28125 L 21.265625 0 Z M 15.859375 0" transform="translate(222.344359, 317.072539)"/></g></g></g><g fill="#fff" fill-opacity="1"><g><g><path d="M 2.078125 -19.28125 L 18.75 -19.28125 L 18.75 -14.65625 L 8.265625 -14.65625 L 8.265625 -11.984375 L 17.234375 -11.984375 L 17.234375 -7.5625 L 8.265625 -7.5625 L 8.265625 -4.625 L 18.9375 -4.625 L 18.9375 0 L 2.078125 0 Z M 2.078125 -19.28125" transform="translate(245.684741, 317.072539)"/></g></g></g><g fill="#fff" fill-opacity="1"><g><g><path d="M 14.03125 0 L 7.84375 0 L 7.84375 -7.484375 L 0.203125 -19.28125 L 7.3125 -19.28125 L 11.015625 -12.859375 L 11.125 -12.859375 L 14.8125 -19.28125 L 21.578125 -19.28125 L 14.03125 -7.484375 Z M 14.03125 0" transform="translate(265.914942, 317.072539)"/></g></g></g></svg>